<?xml version="1.0" encoding="UTF-8"?>
<svg version="1.1" viewBox="0 0 2048 673" width="1280" height="1280" xmlns="http://www.w3.org/2000/svg">
<path transform="translate(0)" d="m0 0h2048v673h-2048z" fill="#FDFDFD"/>
<path transform="translate(219,175)" d="m0 0h9l11 2 10 4 10 7 8 9 9 15 14 24 15 26 13 22 13 23 12 21 9 16 6 14 3 12-2 16-6 14-8 10-7 7-10 6-13 4-15 1-13-2-9-4-8-5-8-7-9-14-30-52-14-24-12-21-14-24-12-21-4-11-1-6v-13l4-15 7-12 10-10 11-7 12-4z" fill="#1C2089"/>
<path transform="translate(385,175)" d="m0 0 14 1 13 5 10 7 9 10 9 15 16 28 14 24 16 28 14 24 11 19 8 15 3 9 1 8v10l-3 14-6 11-9 11-10 7-12 5-12 2h-9l-14-3-12-6-10-9-9-12-13-23-9-15-10-17-11-19-16-28-15-27-8-14-4-11-1-6v-14l3-13 6-11 11-12 11-7 14-5z" fill="#1C2089"/>
<path transform="translate(596,216)" d="m0 0h11l10 3 7 8 10 24 17 44v2h2l1-5 16-43 11-28 4-3 10-2h9l9 3 5 5 2 5 4 34 5 63 1 13v19l-6 3-4 1h-8l-8-3-4-6-1-7-3-60-1-30 1-3h-2l-3 10-21 55-3 6-4 3-4 1h-14l-7-3-6-12-12-31-10-27v-3h-2v16l-3 68-2 23-3 2-6 1h-9l-7-3-4-5v-23l5-78 2-27 3-5 8-4z" fill="#373738"/>
<path transform="translate(1111,245)" d="m0 0h15l17 3 14 6 11 10 7 12 4 14 1 17-2 15-4 12-6 10-9 9-10 6-13 4-15 1-16-3-4-1-1 42-5 2h-16l-5-3-3-5-1-5v-121l2-8 4-5 14-7 14-4z" fill="#373738"/>
<path transform="translate(136,315)" d="m0 0h13l15 4 11 6 12 11 8 14 4 14v13l-5 17-7 11-6 7-10 7-11 5-6 2-13 1-12-2-13-5-9-7-8-8-8-14-3-11v-15l2-11 5-12 7-9 7-7 10-6 13-4z" fill="#7ECDF6"/>
<path transform="translate(1566,245)" d="m0 0h18l15 3 12 6 5 4 6 9 3 9 1 8v56l-2 8-8 7-13 6-19 3h-17l-16-3-9-4-8-6-6-8-3-9v-12l3-10 4-6 8-7 11-4 17-3 27-3v-7l-3-7-6-4-10-2-16 1-13 3-5 2h-6l-3-5-1-10 4-6 7-4 15-4z" fill="#373738"/>
<path transform="translate(1330,245)" d="m0 0h17l16 3 10 5 10 9 5 11 1 5v66l-3 6-8 6-12 5-18 3h-17l-16-3-10-4-10-9-4-6-2-6v-15l3-10 5-7 11-7 16-4 35-4-1-11-5-5-6-3-13-1-16 2-13 4-5-1-3-4-1-3v-8l6-7 11-4 8-2z" fill="#373738"/>
<path transform="translate(794,245)" d="m0 0h18l14 3 10 4 9 7 6 10 2 7v69l-4 6-9 6-10 4-18 3h-17l-16-3-10-4-10-9-5-10-1-4v-13l3-10 7-8 9-6 16-4 35-4v-8l-4-7-9-4-12-1-20 3-9 3h-5l-4-9 1-9 7-6 13-4z" fill="#373738"/>
<path transform="translate(1753,205)" d="m0 0h12l7 3 3 3 1 3v37l15-5 7-1h12l14 3 11 6 7 7 6 12 2 12v73l-3 3-5 1h-11l-7-3-3-4-1-3-1-64-2-8-4-6-6-3-5-1h-9l-13 4-3 2-1 84-1 1-7 1h-11l-8-4-3-7v-144z" fill="#373738"/>
<path transform="translate(1450,245)" d="m0 0h21l14 3 10 5 5 6v10l-4 6-2 1-15-5-13-2-13 1-7 4-1 2v6l5 5 20 6 13 4 11 6 7 8 4 11v15l-4 10-5 6-10 6-8 3-12 2h-15l-14-2-12-4-8-6-3-5v-7l3-7 3-3 9 3 12 5 16 2 9-1 6-3 3-6-1-6-5-5-21-6-15-5-10-7-6-8-3-12 1-10 6-12 8-7 11-5z" fill="#373738"/>
<path transform="translate(1668,217)" d="m0 0 9 1 5 3 2 3 1 5 1 21 34 1 2 5v12l-4 5-2 1h-31l1 55 3 6 6 3 9 1 13-3 4 4 1 3v8l-4 6-8 5-11 2h-8l-15-3-9-5-7-7-4-11-1-6v-112l3-2z" fill="#373738"/>
<path transform="translate(891,205)" d="m0 0h11l7 2 4 5 1 2v144l-3 3-4 1h-11l-8-3-3-5-1-5v-142z" fill="#373738"/>
<path transform="translate(955,205)" d="m0 0h10l7 2 4 5 1 3v144l-2 2-6 1h-11l-6-3-4-4-1-4v-143l3-2z" fill="#373738"/>
<path transform="translate(1247,245)" d="m0 0h16l10 3 5 6 1 7-3 9h-17l-13 2-11 4-1 82-3 3-5 1h-10l-7-2-4-5-1-3v-84l3-6 8-7 13-6 12-3z" fill="#373738"/>
<path transform="translate(1021,247)" d="m0 0 10 1 5 3 3 4 1 34v23l-1 48-7 2h-12l-7-4-3-5v-104z" fill="#373738"/>
<path transform="translate(1115,269)" d="m0 0h8l9 2 10 6 5 10 2 8v18l-3 11-5 8-9 6-9 2-12-1-10-4-1-1v-58l4-4 5-2z" fill="#FEFEFE"/>
<path transform="translate(814,311)" d="m0 0h10v26l-7 3-8 1h-13l-8-3-5-6-1-8 4-7 6-3 12-2z" fill="#FEFEFE"/>
<path transform="translate(1350,311)" d="m0 0h10v26l-6 3-9 1h-13l-8-3-4-4-2-5 1-8 6-5 8-3z" fill="#FEFEFE"/>
<path transform="translate(1586,311)" d="m0 0h10v26l-7 3-8 1h-12l-9-3-4-4-1-3v-9l5-6 9-3z" fill="#FEFEFE"/>
<path transform="translate(1019,199)" d="m0 0h11l8 5 3 6 1 8-4 8-5 4-5 2h-7l-7-3-5-6-2-9 3-8 7-6z" fill="#373738"/>
</svg>
